<svg width="19" height="12" viewBox="0 0 19 12" fill="none" xmlns="http://www.w3.org/2000/svg">
<path d="M17.2416 2.89485H1.61203C1.30498 2.89485 1.01048 2.77287 0.793362 2.55575C0.576242 2.33863 0.454285 2.04416 0.454285 1.7371C0.454285 1.43005 0.576242 1.13557 0.793362 0.918455C1.01048 0.701336 1.30498 0.579361 1.61203 0.579361H17.2416C17.5486 0.579361 17.8431 0.701336 18.0602 0.918455C18.2773 1.13557 18.3993 1.43005 18.3993 1.7371C18.3993 2.04416 18.2773 2.33863 18.0602 2.55575C17.8431 2.77287 17.5486 2.89485 17.2416 2.89485Z" fill="#3F3D56"/>
<path d="M17.2416 7.23637H1.61203C1.30498 7.23637 1.01048 7.1144 0.793362 6.89728C0.576242 6.68016 0.454285 6.38568 0.454285 6.07863C0.454285 5.77158 0.576242 5.4771 0.793362 5.25998C1.01048 5.04287 1.30498 4.92089 1.61203 4.92089H17.2416C17.5486 4.92089 17.8431 5.04287 18.0602 5.25998C18.2773 5.4771 18.3993 5.77158 18.3993 6.07863C18.3993 6.38568 18.2773 6.68016 18.0602 6.89728C17.8431 7.1144 17.5486 7.23637 17.2416 7.23637Z" fill="#3F3D56"/>
<path d="M17.2416 11.5779H1.61203C1.30498 11.5779 1.01048 11.4559 0.793362 11.2388C0.576242 11.0217 0.454285 10.7272 0.454285 10.4202C0.454285 10.1131 0.576242 9.81864 0.793362 9.60152C1.01048 9.3844 1.30498 9.26243 1.61203 9.26243H17.2416C17.5486 9.26243 17.8431 9.3844 18.0602 9.60152C18.2773 9.81864 18.3993 10.1131 18.3993 10.4202C18.3993 10.7272 18.2773 11.0217 18.0602 11.2388C17.8431 11.4559 17.5486 11.5779 17.2416 11.5779Z" fill="#3F3D56"/>
</svg>
