<svg width="57" height="13" viewBox="0 0 57 13" fill="none" xmlns="http://www.w3.org/2000/svg">
<path d="M6.60806 12.7352C10.1248 12.7352 12.9756 9.8843 12.9756 6.36758C12.9756 2.85086 10.1248 0 6.60806 0C3.09134 0 0.240479 2.85086 0.240479 6.36758C0.240479 9.8843 3.09134 12.7352 6.60806 12.7352Z" fill="#3F3D56"/>
<path d="M28.6051 12.7352C32.1219 12.7352 34.9727 9.8843 34.9727 6.36758C34.9727 2.85086 32.1219 0 28.6051 0C25.0884 0 22.2375 2.85086 22.2375 6.36758C22.2375 9.8843 25.0884 12.7352 28.6051 12.7352Z" fill="#3F3D56"/>
<path d="M50.6023 12.7352C54.119 12.7352 56.9698 9.8843 56.9698 6.36758C56.9698 2.85086 54.119 0 50.6023 0C47.0855 0 44.2347 2.85086 44.2347 6.36758C44.2347 9.8843 47.0855 12.7352 50.6023 12.7352Z" fill="#3F3D56"/>
</svg>
