<svg width="85" height="85" viewBox="0 0 85 85" fill="none" xmlns="http://www.w3.org/2000/svg">
<path d="M42.2576 84.5152C65.5958 84.5152 84.5152 65.5959 84.5152 42.2576C84.5152 18.9194 65.5958 0 42.2576 0C18.9194 0 0 18.9194 0 42.2576C0 65.5959 18.9194 84.5152 42.2576 84.5152Z" fill="#F0F0F0"/>
<path d="M28.7379 45.2167L30.7657 52.2412L56.6794 51.784L56.4524 38.9135C56.2726 28.726 49.0728 19.9395 38.8855 20.1192C28.6982 20.2989 22.2207 28.9114 22.4004 39.0989L23.8803 52.3627L28.1053 52.2882L28.7379 45.2167Z" fill="#2F2E41"/>
<path d="M40.0436 50.1287C46.4649 50.1287 51.6704 44.9232 51.6704 38.5018C51.6704 32.0805 46.4649 26.875 40.0436 26.875C33.6223 26.875 28.4167 32.0805 28.4167 38.5018C28.4167 44.9232 33.6223 50.1287 40.0436 50.1287Z" fill="#FFB6B6"/>
<path d="M52.7715 30.3377C52.756 29.4475 52.4774 28.5817 51.9706 27.8495C51.9171 27.7743 51.8633 27.7044 51.8095 27.6345C51.3787 27.0848 50.8266 26.642 50.1964 26.3409C49.5662 26.0398 48.8749 25.8884 48.1765 25.8987L39.8198 26.0492L31.4684 26.1943C30.272 26.2182 29.1338 26.7152 28.3028 27.5763C27.4719 28.4374 27.016 29.5926 27.0347 30.7891L29.0233 34.7929L30.1679 37.093L30.356 36.9855C37.5841 32.9227 40.5398 32.8689 50.1059 36.647L50.2993 36.7222L51.0572 34.7821L52.7767 30.3807L52.7715 30.3377Z" fill="#2F2E41"/>
<path d="M63.1867 56.6333C60.6928 54.1452 52.2555 55.134 52.2555 55.134L29.9854 56.5366C25.0463 56.902 20.5965 60.8574 18.9844 62.4589C19.2421 62.7115 19.5057 62.9587 19.7747 63.1951C24.7237 67.5938 30.9447 70.3024 37.5363 70.9286C44.1279 71.5547 50.7476 70.0658 56.4363 66.6776C58.8225 65.2534 61.8756 63.5459 63.7887 61.5521C64.5466 60.7675 65.153 60.7831 65.8248 59.9233C65.3219 58.5716 64.3968 57.4179 63.1867 56.6333Z" fill="#04C35C"/>
</svg>
