<svg width="112" height="27" viewBox="0 0 112 27" fill="none" xmlns="http://www.w3.org/2000/svg">
<path d="M106.543 26.777H5.45674C4.19396 26.777 2.98291 26.2753 2.08999 25.3824C1.19707 24.4895 0.695435 23.2784 0.695435 22.0156C0.695435 20.7529 1.19707 19.5418 2.08999 18.6489C2.98291 17.756 4.19396 17.2543 5.45674 17.2543H106.543C107.806 17.2543 109.017 17.756 109.91 18.6489C110.803 19.5418 111.305 20.7529 111.305 22.0156C111.305 23.2784 110.803 24.4895 109.91 25.3824C109.017 26.2753 107.806 26.777 106.543 26.777Z" fill="#E4E4E4"/>
<path d="M90.2449 10.4786H21.7551C20.4932 10.4772 19.2835 9.97496 18.3918 9.08219C17.5 8.18942 16.999 6.97914 16.999 5.71727C16.999 4.4554 17.5 3.24514 18.3918 2.35237C19.2835 1.4596 20.4932 0.957335 21.7551 0.955944H90.2449C91.5076 0.955944 92.7187 1.45759 93.6116 2.35051C94.5045 3.24343 95.0062 4.45449 95.0062 5.71727C95.0062 6.98005 94.5045 8.19112 93.6116 9.08404C92.7187 9.97696 91.5076 10.4786 90.2449 10.4786Z" fill="#E4E4E4"/>
</svg>
